<?xml version="1.0" encoding="utf-8"?>
<!-- Generator: Adobe Illustrator 16.0.0, SVG Export Plug-In . SVG Version: 6.00 Build 0)  -->
<!DOCTYPE svg PUBLIC "-//W3C//DTD SVG 1.1//EN" "http://www.w3.org/Graphics/SVG/1.1/DTD/svg11.dtd">
<svg version="1.1" id="Layer_1" xmlns="http://www.w3.org/2000/svg" xmlns:xlink="http://www.w3.org/1999/xlink" x="0px" y="0px"
	 width="364px" height="344px" viewBox="0 0 364 344" enable-background="new 0 0 364 344" xml:space="preserve">
<g>
	<g>
		<path fill="#FFFFFF" d="M279.061,110.061c4.864-4.812,10.136-9.188,15-14c1.377-1.362-0.745-3.482-2.121-2.121
			c-4.864,4.812-10.136,9.188-15,14C275.562,109.301,277.685,111.422,279.061,110.061L279.061,110.061z"/>
	</g>
</g>
<g>
	<g>
		<path fill="#FFFFFF" d="M237.295,76.757c4.122-8.115,8.878-15.885,13-24c0.874-1.72-1.714-3.239-2.59-1.514
			c-4.122,8.115-8.878,15.885-13,24C233.831,76.963,236.419,78.482,237.295,76.757L237.295,76.757z"/>
	</g>
</g>
<g>
	<g>
		<path fill="#FFFFFF" d="M165.5,44c0.065-8.678,0.927-17.323,1-26c0.016-1.935-2.984-1.934-3,0c-0.073,8.677-0.935,17.322-1,26
			C162.485,45.935,165.485,45.934,165.5,44L165.5,44z"/>
	</g>
</g>
<g>
	<g>
		<path fill="#FFFFFF" d="M91.731,66.377c-6.566-5.886-11.966-12.842-17.341-19.795c-1.182-1.529-3.289,0.611-2.121,2.121
			c5.375,6.954,10.774,13.91,17.341,19.795C91.045,69.785,93.174,67.67,91.731,66.377L91.731,66.377z"/>
	</g>
</g>
<g>
	<g>
		<path fill="#FFFFFF" d="M63.399,109.554C53.022,107.549,42.507,106.546,32,105.5c-1.925-0.191-1.906,2.81,0,3
			c10.24,1.02,20.487,1.993,30.601,3.946C64.491,112.812,65.297,109.92,63.399,109.554L63.399,109.554z"/>
	</g>
</g>
<g>
	<g>
		<path fill="#FFFFFF" d="M54,192.5c-6.648,0.893-13.302,0.998-20,1c-1.935,0-1.935,3,0,3c6.698-0.002,13.352-0.107,20-1
			C55.888,195.247,55.913,192.243,54,192.5L54,192.5z"/>
	</g>
</g>
<g>
	<g>
		<path fill="#FFFFFF" d="M45.939,265.939c-5.604,5.461-12.208,9.475-18.696,13.766c-1.606,1.062-0.105,3.661,1.514,2.59
			c6.702-4.433,13.518-8.596,19.304-14.234C49.448,266.709,47.325,264.589,45.939,265.939L45.939,265.939z"/>
	</g>
</g>
<g>
	<g>
		<path fill="#FFFFFF" d="M121.554,297.602c-3.094,7.888-7.956,14.787-12.849,21.642c-1.126,1.578,1.477,3.074,2.591,1.514
			c5.062-7.091,9.953-14.204,13.151-22.358C125.154,296.596,122.252,295.821,121.554,297.602L121.554,297.602z"/>
	</g>
</g>
<g>
	<g>
		<path fill="#FFFFFF" d="M191.5,302c-0.925,7.979-1.075,16.021-2,24c-0.223,1.92,2.78,1.898,3,0c0.925-7.979,1.075-16.021,2-24
			C194.723,300.08,191.72,300.102,191.5,302L191.5,302z"/>
	</g>
</g>
<g>
	<g>
		<path fill="#FFFFFF" d="M264.962,297.894c2.495,10.398,7.967,19.104,14.563,27.385c0.968,1.215,2.66-0.502,1.703-1.703
			c-6.336-7.954-11.547-16.33-13.944-26.322C266.922,295.743,264.6,296.384,264.962,297.894L264.962,297.894z"/>
	</g>
</g>
<g>
	<g>
		<path fill="#FFFFFF" d="M313.243,262.295c9.455,4.114,19.264,7.073,29.358,9.151c1.888,0.389,2.691-2.503,0.797-2.893
			c-9.825-2.023-19.434-4.843-28.642-8.849C313.002,258.941,311.473,261.525,313.243,262.295L313.243,262.295z"/>
	</g>
</g>
<g>
	<g>
		<path fill="#FFFFFF" d="M310.757,183.295c8.566-3.891,16.619-8.747,25-13c1.726-0.875,0.207-3.463-1.514-2.59
			c-8.382,4.253-16.435,9.109-25,13C307.483,181.504,309.01,184.089,310.757,183.295L310.757,183.295z"/>
	</g>
</g>
</svg>
